<svg xmlns="http://www.w3.org/2000/svg" width="24.505" height="26.369" viewBox="0 0 24.505 26.369"><defs><style>.a{fill:#ffc700;}</style></defs><g transform="translate(0 0)"><path class="a" d="M24.184,17.362h14.53a3,3,0,0,0,2.992-2.992V8.193A.069.069,0,0,0,41.7,8.16c0-.011-.005-.027-.005-.038s-.005-.022-.005-.033a.345.345,0,0,1-.011-.038c-.005-.011-.005-.022-.011-.033s-.005-.022-.011-.033a.264.264,0,0,1-.016-.038.118.118,0,0,0-.016-.027l-.016-.033c-.005-.011-.011-.016-.016-.027s-.016-.022-.022-.033a.1.1,0,0,0-.022-.027c-.005-.011-.016-.016-.022-.027s-.016-.016-.022-.027-.016-.016-.022-.022L41.456,7.7c-.011-.005-.016-.016-.027-.022s-.022-.016-.033-.022-.016-.011-.027-.016a.113.113,0,0,1-.033-.022L41.3,7.6l-.033-.016-.033-.016c-.011-.005-.022-.005-.033-.011a.1.1,0,0,0-.038-.011.235.235,0,0,1-.027-.005.119.119,0,0,0-.043-.005c-.005,0-.011-.005-.022-.005L22.661,4.99V2.421a.333.333,0,0,0-.005-.076.041.041,0,0,0-.005-.022c0-.016-.005-.033-.005-.049s-.005-.027-.011-.043-.005-.016-.005-.027l-.016-.049c0-.005-.005-.016-.005-.022a.162.162,0,0,0-.022-.043c-.005-.005-.005-.016-.011-.022a.113.113,0,0,0-.022-.033c-.005-.011-.011-.016-.016-.027s-.011-.016-.016-.027S22.5,1.96,22.5,1.95l-.016-.016L22.45,1.9l-.016-.016a.236.236,0,0,0-.038-.033c-.005-.005-.016-.011-.022-.016s-.022-.016-.033-.027a.5.5,0,0,0-.043-.027c-.005-.005-.011-.005-.016-.011l-.07-.033L18.217.058a.732.732,0,0,0-.569,1.349l3.544,1.5V18.934A3,3,0,0,0,23.8,21.9a2.952,2.952,0,1,0,5.484,1.517,2.9,2.9,0,0,0-.406-1.49h6.579a2.912,2.912,0,0,0-.406,1.49A2.954,2.954,0,1,0,38,20.462H24.184a1.53,1.53,0,0,1-1.528-1.528V16.951A3.026,3.026,0,0,0,24.184,17.362Zm3.642,6.048a1.49,1.49,0,1,1-1.49-1.49A1.493,1.493,0,0,1,27.826,23.411Zm11.674,0a1.49,1.49,0,1,1-1.49-1.49A1.493,1.493,0,0,1,39.5,23.411ZM38.714,15.9H24.184a1.53,1.53,0,0,1-1.528-1.528V6.464L40.242,8.886v5.479A1.531,1.531,0,0,1,38.714,15.9Z" transform="translate(-17.2 0)"/></g></svg>