<?xml version="1.0" encoding="utf-8"?>
<!-- Generator: Adobe Illustrator 24.2.3, SVG Export Plug-In . SVG Version: 6.00 Build 0)  -->
<svg version="1.1" xmlns="http://www.w3.org/2000/svg" xmlns:xlink="http://www.w3.org/1999/xlink" x="0px" y="0px"
	 viewBox="0 0 141.73 122.85" style="enable-background:new 0 0 141.73 122.85;" xml:space="preserve">
<style type="text/css">
	.st0{fill:#E6A329;}
	.st1{fill:#F1BF22;}
	.st2{fill:#FFFFFF;}
	.st3{fill:#EBEBEB;}
</style>
<g id="Layer_1">
	<g id="code_x5F_html5">
	</g>
	<g>
		<polygon class="st0" points="111.14,17.51 70.87,17.51 70.87,17.51 30.59,17.51 38.14,99.4 70.87,108.67 70.87,108.67 
			70.87,108.67 70.87,108.67 70.87,108.67 103.58,99.4 		"/>
		<polygon class="st1" points="70.87,24.18 70.87,101.74 70.87,101.74 97.37,94.23 103.82,24.18 		"/>
		<polygon class="st2" points="91.95,34.23 51.19,34.23 48.35,64.89 48.41,64.7 83.04,64.7 81.91,77.66 70.87,80.85 59.65,77.62 
			58.98,69.77 48.8,69.77 50.25,85.45 70.87,91.31 91.48,85.45 94.32,54.67 57.57,54.67 58.04,44.41 83.54,44.41 83.92,50.28 
			94.19,50.28 		"/>
		<g>
			<path class="st3" d="M70.87,34.23H51.19l-2.83,30.66l0.06-0.19h22.45V54.67H58.99l0.47-10.26h11.41V34.23z M58.98,69.77H48.8
				l1.45,15.68l20.61,5.84V80.85l-11.21-3.23L58.98,69.77z"/>
		</g>
	</g>
</g>
<g id="Layer_2">
</g>
</svg>
