<svg xmlns="http://www.w3.org/2000/svg" width="80.392" height="106.591" viewBox="0 0 80.392 106.591">
  <g id="Groupe_213" data-name="Groupe 213" transform="translate(26.868 257.693)">
    <g id="Groupe_29" data-name="Groupe 29" transform="translate(-26.868 -257.693)">
      <path id="Tracé_14" data-name="Tracé 14" d="M232.628,251.2c6.116,3.215,7.554,8.369,7.532,14.273-.025,6.677-.032,13.354.028,20.031a18.75,18.75,0,0,0,.551,4.5c.571,2.2,2.131,3.149,4.418,2.771.582-.1,1.157-.249,1.742-.33,3.068-.422,4.7.4,5.231,2.608.513,2.117-.955,5.142-3.221,5.68a39.8,39.8,0,0,1-9.433,1.369c-5.4-.05-9.1-4.112-9.355-10.313-.308-7.51-.13-15.039-.279-22.558a29.567,29.567,0,0,0-.792-6.757c-.909-3.526-2.918-4.756-6.567-4.493-2.066.148-4.228.418-5.058-2.134a5.538,5.538,0,0,1,2.96-6.818,2.946,2.946,0,0,1,.711-.258c6.449-1.259,8.483-5.9,8.645-11.69.193-6.925.017-13.86.176-20.786a34.41,34.41,0,0,1,.974-8.512c2.02-7.134,7.23-10.675,14.359-11.71a9.677,9.677,0,0,0,1.5-.2c2.048-.645,3.961-.586,5.036,1.539,1.114,2.2.267,4.2-1.463,5.661a7.955,7.955,0,0,1-3.39,1.517c-4.889,1.045-6.593,2.856-6.7,7.958-.132,6.251-.222,12.512-.035,18.76C240.423,238.891,239.087,245.793,232.628,251.2Z" transform="translate(-217.132 -195.515)" fill="#ffc700"/>
      <path id="Tracé_15" data-name="Tracé 15" d="M278.83,238.413c0-3.363-.108-6.484.032-9.594a5.638,5.638,0,0,1,4.851-5.413q16.4-3.16,32.825-6.2c3.945-.724,5.268.5,5.279,4.506.022,8.412-.187,8.663-8.61,10.28q-16.527,3.173-33.057,6.334A12.874,12.874,0,0,1,278.83,238.413Z" transform="translate(-241.427 -203.985)" fill="#ffc700"/>
      <path id="Tracé_16" data-name="Tracé 16" d="M278.99,279.161V264.974c6.017-1.16,11.974-2.315,17.932-3.456,2.818-.54,5.63-1.133,8.466-1.557,3.508-.525,4.921.7,5.05,4.177.035.928.016,1.859.01,2.789-.03,4.857-1.3,6.453-6.12,7.394C295.97,275.955,287.6,277.521,278.99,279.161Z" transform="translate(-241.506 -220.862)" fill="#ffc700"/>
      <path id="Tracé_17" data-name="Tracé 17" d="M278.828,307.289c3.843-.724,7.465-1.525,11.126-2.057,2.767-.4,4.294,1.056,4.462,3.836.519,8.594-3.494,12.441-12.154,11.6a3.5,3.5,0,0,1-3.41-3.706C278.757,313.852,278.828,310.735,278.828,307.289Z" transform="translate(-241.432 -238.72)" fill="#ffc700"/>
    </g>
  </g>
</svg>