<svg xmlns="http://www.w3.org/2000/svg" width="56.573" height="56.572" viewBox="0 0 56.573 56.572"><defs><style>.a{fill:#7c8193;}.b{fill:none;stroke:#ffd200;stroke-width:2px;}</style></defs><g transform="translate(0 0.345)"><g transform="translate(0 0.001)"><path class="a" d="M49.677,13.457a1.047,1.047,0,0,0,.117.007,1.061,1.061,0,0,0,.75-.311l5.718-5.717a1.06,1.06,0,0,0-.654-1.806l-4.275-.389L50.944.966A1.06,1.06,0,0,0,49.138.312L43.421,6.029a1.06,1.06,0,0,0-.3.867l.506,4.555-1.071,1.071A23.5,23.5,0,0,0,27.7,6.361V4.347a1.06,1.06,0,0,0-2.121,0V6.361A23.625,23.625,0,0,0,3.074,28.87H1.06a1.06,1.06,0,1,0,0,2.121H3.074A23.625,23.625,0,0,0,25.583,53.5v2.013a1.06,1.06,0,1,0,2.121,0V53.5A23.625,23.625,0,0,0,50.213,30.991h2.013a1.06,1.06,0,0,0,0-2.121H50.213a23.5,23.5,0,0,0-6.161-14.849l1.071-1.071Zm-.64-10.044.264,2.9a1.06,1.06,0,0,0,.96.96l2.9.264-3.756,3.756-3.712-.412-.412-3.712ZM48.091,28.87H46.6a1.06,1.06,0,0,0,0,2.121h1.494A21.5,21.5,0,0,1,27.7,51.378V49.884a1.06,1.06,0,1,0-2.121,0v1.494A21.5,21.5,0,0,1,5.2,30.991H6.69a1.06,1.06,0,1,0,0-2.121H5.2A21.5,21.5,0,0,1,25.583,8.483V9.977a1.06,1.06,0,1,0,2.121,0V8.483a21.39,21.39,0,0,1,13.348,5.539l-3.191,3.191a16.984,16.984,0,1,0,1.5,1.5l3.191-3.191A21.391,21.391,0,0,1,48.091,28.87Zm-22.2,1.81a1.06,1.06,0,0,0,1.5,0l5.9-5.837A8.493,8.493,0,0,1,35.1,29.93c0,4.532-3.715,9.245-8.247,9.245s-8.983-4.713-8.983-9.245a9.069,9.069,0,0,1,8.77-8.622A8.815,8.815,0,0,1,31.816,23.2L25.893,29.18A1.061,1.061,0,0,0,25.893,30.68Zm.75-11.089a10.353,10.353,0,1,0,8.018,3.821l3.2-3.2a14.86,14.86,0,1,1-1.5-1.5l-3.2,3.2A10.29,10.29,0,0,0,26.643,19.591Z" transform="translate(0 -0.348)"/><circle class="b" cx="9.5" cy="9.5" r="9.5" transform="translate(17 20.154)"/></g></g></svg>