<svg xmlns="http://www.w3.org/2000/svg" width="22.261" height="26.171" viewBox="0 0 22.261 26.171"><defs><style>.a{fill:#ffc700;}</style></defs><g transform="translate(0 0)"><g transform="translate(0)"><path class="a" d="M142.643,14.1h.173a5,5,0,0,0,3.821-1.653c2.086-2.352,1.74-6.384,1.7-6.769-.135-2.889-1.5-4.271-2.628-4.915A6.026,6.026,0,0,0,142.795,0H142.7a6.035,6.035,0,0,0-2.916.742c-1.138.645-2.525,2.027-2.661,4.937-.038.385-.385,4.417,1.7,6.769A4.981,4.981,0,0,0,142.643,14.1Zm-4.07-8.286c0-.016.005-.033.005-.043.179-3.886,2.937-4.3,4.119-4.3h.065c1.463.033,3.951.629,4.119,4.3a.105.105,0,0,0,.005.043c.005.038.385,3.723-1.339,5.663a3.552,3.552,0,0,1-2.791,1.16H142.7a3.54,3.54,0,0,1-2.786-1.16C138.2,9.549,138.568,5.848,138.573,5.815Z" transform="translate(-131.607)"/><path class="a" d="M58.332,265.984v-.016c0-.043-.005-.087-.005-.135-.033-1.073-.1-3.582-2.455-4.384l-.054-.016a15.636,15.636,0,0,1-4.5-2.049.731.731,0,0,0-.84,1.2,16.879,16.879,0,0,0,4.948,2.26c1.263.45,1.4,1.8,1.442,3.035a1.089,1.089,0,0,0,.005.135,9.837,9.837,0,0,1-.114,1.675,19.945,19.945,0,0,1-9.555,2.222,20.06,20.06,0,0,1-9.56-2.227,9.313,9.313,0,0,1-.114-1.675c0-.043.005-.087.005-.135.038-1.236.179-2.585,1.442-3.035a17.036,17.036,0,0,0,4.948-2.26.731.731,0,0,0-.84-1.2,15.466,15.466,0,0,1-4.5,2.049c-.022.005-.038.011-.054.016-2.352.808-2.422,3.317-2.455,4.384a1.088,1.088,0,0,1-.005.135v.016a8.311,8.311,0,0,0,.276,2.455.7.7,0,0,0,.282.341,20.5,20.5,0,0,0,10.579,2.591,20.561,20.561,0,0,0,10.579-2.591.725.725,0,0,0,.282-.341A8.719,8.719,0,0,0,58.332,265.984Z" transform="translate(-36.073 -245.194)"/></g></g></svg>